<svg width="23" height="23" viewBox="0 0 23 23" fill="none" xmlns="http://www.w3.org/2000/svg">
<path d="M2.84766 22.5H1.56203C1.17421 22.4982 0.802792 22.3433 0.528559 22.0691C0.254327 21.7949 0.0994643 21.4234 0.0976562 21.0356V4.16437C0.0994735 3.19308 0.486124 2.26209 1.17293 1.57528C1.85974 0.888468 2.79074 0.501817 3.76203 0.5H18.4333C19.4046 0.501817 20.3356 0.888468 21.0224 1.57528C21.7092 2.26209 22.0958 3.19308 22.0977 4.16437V16.0306C22.0958 17.0019 21.7092 17.9329 21.0224 18.6197C20.3356 19.3065 19.4046 19.6932 18.4333 19.695H5.89328L4.67641 21.5237C4.47572 21.8247 4.20373 22.0713 3.88466 22.2416C3.56559 22.4119 3.20934 22.5007 2.84766 22.5ZM3.76203 1.96437C3.17855 1.96437 2.61898 2.19616 2.2064 2.60874C1.79382 3.02132 1.56203 3.5809 1.56203 4.16437V21.0356H2.84766C2.96906 21.0359 3.08862 21.0059 3.19548 20.9483C3.30234 20.8907 3.3931 20.8072 3.45953 20.7056L4.67641 18.8837C4.80587 18.6768 4.98501 18.5055 5.19753 18.3854C5.41005 18.2654 5.64922 18.2003 5.89328 18.1962H18.4333C19.0168 18.1962 19.5763 17.9645 19.9889 17.5519C20.4015 17.1393 20.6333 16.5797 20.6333 15.9962V4.16437C20.6333 3.5809 20.4015 3.02132 19.9889 2.60874C19.5763 2.19616 19.0168 1.96437 18.4333 1.96437H3.76203Z" fill="white"/>
<path fill-rule="evenodd" clip-rule="evenodd" d="M7.35766 4.8999L7.92141 5.59428L8.75329 5.91053L8.26516 6.6599L8.22391 7.55365L7.35766 7.3199L6.49829 7.55365L6.45016 6.6599L5.96204 5.91053L6.80079 5.59428L7.35766 4.8999Z" fill="white"/>
<path fill-rule="evenodd" clip-rule="evenodd" d="M11.0221 4.8999L11.5858 5.59428L12.4177 5.91053L11.9295 6.6599L11.8883 7.55365L11.0221 7.3199L10.1627 7.55365L10.1214 6.6599L9.6333 5.91053L10.4652 5.59428L11.0221 4.8999Z" fill="white"/>
<path fill-rule="evenodd" clip-rule="evenodd" d="M14.6934 4.8999L15.2502 5.59428L16.089 5.91053L15.6009 6.6599L15.5527 7.55365L14.6934 7.3199L13.834 7.55365L13.7859 6.6599L13.2977 5.91053L14.1296 5.59428L14.6934 4.8999Z" fill="white"/>
<path d="M17.6976 10.0356H5.23328V11.5H17.6976V10.0356Z" fill="white"/>
<path d="M11.0977 13.7H5.23328V15.1643H11.0977V13.7Z" fill="white"/>
</svg>
